<?xml version="1.0" encoding="UTF-8" standalone="no"?><!-- Generator: Gravit.io --><svg xmlns="http://www.w3.org/2000/svg" xmlns:xlink="http://www.w3.org/1999/xlink" style="isolation:isolate" viewBox="896.561 236.803 330 350.693" width="330pt" height="350.693pt"><g><path d=" M 1069.724 572.244 L 1086.5 571.328 C 1159.794 567.328 1215.723 508.281 1211.318 439.551 L 1211.318 439.551 C 1206.913 370.821 1162.261 322.068 1111.667 330.747 C 1111.667 330.747 1035.957 330.74 1035.957 330.74 C 965.536 322.065 909.815 370.07 911.603 437.874 L 911.603 437.874 C 913.682 516.684 984.533 576.893 1069.724 572.244 Z " fill="rgb(246,51,76)" vector-effect="non-scaling-stroke" stroke-width="10" stroke="rgb(0,0,0)" stroke-linejoin="miter" stroke-linecap="square" stroke-miterlimit="3"/><path d=" M 1084.942 571.529 L 1084.942 571.529 C 1153.838 563.737 1210.567 505.701 1211.544 442.008 L 1211.544 442.008 C 1212.521 378.316 1172.239 333.652 1121.646 342.332 C 1121.646 342.332 1045.936 342.325 1045.936 342.325 C 975.515 333.649 922.799 380.76 928.288 447.463 L 928.288 447.463 C 934.669 524.994 1004.863 580.586 1084.942 571.529 Z " fill="rgb(255,110,128)"/><path d=" M 1065.703 256.771 C 1066.545 253.901 1069.199 251.803 1072.342 251.803 L 1105.854 251.803 C 1109.678 251.803 1111.783 254.742 1110.551 258.362 C 1104.492 276.168 1101.737 294.613 1102.199 312.917 C 1115.18 315.176 1128.608 316.63 1142.015 317.122 C 1149.211 317.387 1153.658 323.279 1151.94 330.272 L 1147.788 347.174 C 1146.07 354.167 1139.495 357.133 1133.115 353.793 C 1124.649 349.361 1115.396 345.369 1105.632 341.873 C 1109.438 359.609 1116.336 376.804 1126.24 392.705 C 1128.262 395.951 1128.933 401.536 1127.737 405.168 C 1122.422 421.319 1106.631 420.332 1087.344 400.561 C 1084.674 397.824 1081.597 392.633 1080.477 388.976 C 1075.826 373.791 1072.076 354.141 1069.491 331.721 C 1069.235 331.667 1068.979 331.613 1068.722 331.559 L 1036.516 383.756 C 1031.465 391.941 1022.304 392.641 1016.07 385.317 L 1009.45 377.541 C 1003.216 370.217 1004.246 359.386 1011.749 353.368 C 1018.882 347.648 1026.748 338.13 1034.264 326.453 C 1021.347 325.301 1008.589 325.087 996.467 325.89 C 989.282 326.367 985.647 321.336 988.354 314.663 L 1000.479 284.78 C 1003.187 278.107 1010.075 276.18 1015.852 280.48 C 1024.784 287.127 1036.325 293.229 1049.596 298.47 C 1055.002 286.86 1059.609 274.581 1062.794 262.608 C 1063.403 260.321 1064.404 258.356 1065.703 256.771 Z " fill-rule="evenodd" fill="rgb(115,218,140)" vector-effect="non-scaling-stroke" stroke-width="10" stroke="rgb(0,0,0)" stroke-linejoin="miter" stroke-linecap="square" stroke-miterlimit="3"/><g><path d="M 1006.467 393.754 L 1009.269 393.754 C 1013.857 393.754 1017.581 397.479 1017.581 402.066 L 1017.581 430.768 C 1017.581 435.356 1013.857 439.08 1009.269 439.08 L 1006.467 439.08 C 1001.88 439.08 998.155 435.356 998.155 430.768 L 998.155 402.066 C 998.155 397.479 1001.88 393.754 1006.467 393.754 Z" style="stroke:none;fill:#000000;stroke-miterlimit:10;"/><path d="M 1098.156 393.754 L 1100.958 393.754 C 1105.545 393.754 1109.27 397.479 1109.27 402.066 L 1109.27 430.768 C 1109.27 435.356 1105.545 439.08 1100.958 439.08 L 1098.156 439.08 C 1093.568 439.08 1089.844 435.356 1089.844 430.768 L 1089.844 402.066 C 1089.844 397.479 1093.568 393.754 1098.156 393.754 Z" style="stroke:none;fill:#000000;stroke-miterlimit:10;"/></g><path d=" M 1073.875 253.409 L 1104.316 253.409 C 1107.959 253.409 1110.02 256.228 1108.915 259.699 C 1094.792 304.074 1100.057 352.274 1123.367 392.284 C 1125.201 395.431 1125.82 400.813 1124.748 404.295 C 1119.797 420.377 1105.249 419.405 1087.471 399.922 C 1085.016 397.231 1082.208 392.203 1081.205 388.701 C 1072.623 358.743 1067.381 311.539 1067.287 260.01 C 1067.28 256.367 1070.233 253.409 1073.875 253.409 Z " fill="rgb(109,206,132)"/><g><circle vector-effect="non-scaling-stroke" cx="1131.126415827296" cy="465.108645607676" r="30.143346642564893" fill="rgb(255,162,174)"/><circle vector-effect="non-scaling-stroke" cx="991.3444049925706" cy="465.108645607676" r="30.143346642564893" fill="rgb(255,162,174)"/></g><path d=" M 1127.147 467.099 C 1124.02 493.203 1095.829 513.662 1061.561 513.662 C 1027.294 513.662 999.103 493.203 995.975 467.099 L 1127.147 467.099 Z " fill-rule="evenodd" fill="rgb(235,235,235)" vector-effect="non-scaling-stroke" stroke-width="10" stroke="rgb(0,0,0)" stroke-linejoin="miter" stroke-linecap="square" stroke-miterlimit="3"/></g></svg>